<?xml version="1.0"?>
<svg xmlns="http://www.w3.org/2000/svg" xmlns:xlink="http://www.w3.org/1999/xlink" version="1.1" id="Capa_1" x="0px" y="0px" viewBox="0 0 490.667 490.667" style="enable-background:new 0 0 490.667 490.667;" xml:space="preserve" width="512px" height="512px" class=""><g><SCRIPT xmlns="" id="allow-copy_script">(function agent() {
    let isUnlockingCached = false
    const isUnlocking = () =&gt; isUnlockingCached
    document.addEventListener('allow_copy', event =&gt; {
      const { unlock } = event.detail
      isUnlockingCached = unlock
    })

    const copyEvents = [
      'copy',
      'cut',
      'contextmenu',
      'selectstart',
      'mousedown',
      'mouseup',
      'mousemove',
      'keydown',
      'keypress',
      'keyup',
    ]
    const rejectOtherHandlers = e =&gt; {
      if (isUnlocking()) {
        e.stopPropagation()
        if (e.stopImmediatePropagation) e.stopImmediatePropagation()
      }
    }
    copyEvents.forEach(evt =&gt; {
      document.documentElement.addEventListener(evt, rejectOtherHandlers, {
        capture: true,
      })
    })
  })()</SCRIPT><path style="fill:#E68722" d="M245.333,0C109.839,0,0,109.839,0,245.333s109.839,245.333,245.333,245.333  s245.333-109.839,245.333-245.333C490.514,109.903,380.764,0.153,245.333,0z" data-original="#2196F3" class="" data-old_color="#2196F3"/><path style="fill:#FAFAFA" d="M267.968,82.219c-12.496-12.492-32.752-12.492-45.248,0L104.533,200.533  c-18.889,18.894-18.889,49.522,0,68.416c19.139,18.289,49.277,18.289,68.416,0l19.2-19.2v123.584  c0,29.455,23.878,53.333,53.333,53.333c29.455,0,53.333-23.878,53.333-53.333V249.749l19.2,19.2  c19.139,18.289,49.277,18.289,68.416,0c18.889-18.894,18.889-49.522,0-68.416L267.968,82.219z" data-original="#FAFAFA" class="active-path" data-old_color="#FAFAFA"/></g> </svg>
